<svg width="26" height="26" viewBox="0 0 26 26" fill="none" xmlns="http://www.w3.org/2000/svg">
<path d="M18.9042 24.6458C17.68 24.6458 16.3908 24.3533 15.0583 23.79C13.7583 23.2375 12.4475 22.4792 11.1692 21.5583C9.90166 20.6267 8.67749 19.5867 7.51832 18.4492C6.36999 17.29 5.32999 16.0658 4.40916 14.8092C3.47749 13.5092 2.72999 12.2092 2.19916 10.9525C1.63582 9.60916 1.35416 8.30916 1.35416 7.08499C1.35416 6.23999 1.50582 5.43832 1.79832 4.69082C2.10166 3.92166 2.58916 3.20666 3.24999 2.58916C4.08416 1.76582 5.03749 1.35416 6.05582 1.35416C6.47832 1.35416 6.91166 1.45166 7.27999 1.62499C7.70249 1.81999 8.05999 2.11249 8.31999 2.50249L10.8333 6.04499C11.0608 6.35916 11.2342 6.66249 11.3533 6.96582C11.4942 7.29082 11.57 7.61582 11.57 7.92999C11.57 8.34166 11.4508 8.74249 11.2233 9.12166C11.0608 9.41416 10.8117 9.72832 10.4975 10.0425L9.76082 10.8117C9.77166 10.8442 9.78249 10.8658 9.79332 10.8875C9.92332 11.115 10.1833 11.505 10.6817 12.09C11.2125 12.6967 11.7108 13.2492 12.2092 13.7583C12.8483 14.3867 13.3792 14.885 13.8775 15.2967C14.495 15.8167 14.8958 16.0767 15.1342 16.1958L15.1125 16.25L15.9033 15.47C16.2392 15.1342 16.5642 14.885 16.8783 14.7225C17.4742 14.3542 18.2325 14.2892 18.9908 14.6033C19.2725 14.7225 19.5758 14.885 19.9008 15.1125L23.4975 17.6692C23.8983 17.94 24.1908 18.2867 24.3642 18.6983C24.5267 19.11 24.6025 19.4892 24.6025 19.8683C24.6025 20.3883 24.4833 20.9083 24.2558 21.3958C24.0283 21.8833 23.7467 22.3058 23.3892 22.6958C22.7717 23.3783 22.1 23.8658 21.32 24.18C20.5725 24.4833 19.76 24.6458 18.9042 24.6458ZM6.05582 2.97916C5.45999 2.97916 4.90749 3.23916 4.37666 3.75916C3.87832 4.22499 3.53166 4.73416 3.31499 5.28666C3.08749 5.84999 2.97916 6.44582 2.97916 7.08499C2.97916 8.09249 3.21749 9.18666 3.69416 10.3133C4.18166 11.4617 4.86416 12.6533 5.73082 13.845C6.59749 15.0367 7.58332 16.1958 8.66666 17.29C9.74999 18.3625 10.92 19.3592 12.1225 20.2367C13.2925 21.0925 14.495 21.7858 15.6867 22.2842C17.5392 23.075 19.2725 23.2592 20.7025 22.6633C21.255 22.4358 21.7425 22.0892 22.1867 21.5908C22.4358 21.32 22.6308 21.0275 22.7933 20.6808C22.9233 20.41 22.9883 20.1283 22.9883 19.8467C22.9883 19.6733 22.9558 19.5 22.8692 19.305C22.8367 19.24 22.7717 19.1208 22.5658 18.98L18.9692 16.4233C18.7525 16.2717 18.5575 16.1633 18.3733 16.0875C18.135 15.99 18.0375 15.8925 17.6692 16.12C17.4525 16.2283 17.2575 16.3908 17.0408 16.6075L16.2175 17.42C15.795 17.8317 15.145 17.9292 14.6467 17.745L14.3542 17.615C13.91 17.3767 13.39 17.0083 12.8158 16.5208C12.2958 16.0767 11.7325 15.5567 11.05 14.885C10.5192 14.3433 9.98832 13.7692 9.43582 13.13C8.92666 12.5342 8.55832 12.025 8.33082 11.6025L8.20082 11.2775C8.13582 11.0283 8.11416 10.8875 8.11416 10.7358C8.11416 10.3458 8.25499 9.99916 8.52582 9.72832L9.33832 8.88332C9.55499 8.66666 9.71749 8.46082 9.82582 8.27666C9.91249 8.13582 9.94499 8.01666 9.94499 7.90832C9.94499 7.82166 9.91249 7.69166 9.85832 7.56166C9.78249 7.38832 9.66332 7.19332 9.51166 6.98749L6.99832 3.43416C6.88999 3.28249 6.75999 3.17416 6.59749 3.09832C6.42416 3.02249 6.23999 2.97916 6.05582 2.97916ZM15.1125 16.2608L14.9392 16.9975L15.2317 16.2392C15.1775 16.2283 15.1342 16.2392 15.1125 16.2608Z" fill="#0077C8"/>
</svg>
