<svg width="46" height="46" viewBox="0 0 46 46" fill="none" xmlns="http://www.w3.org/2000/svg">
<circle cx="23" cy="23" r="18.5" stroke="#EBF5FC" stroke-width="9"/>
<mask id="path-2-inside-1_52_871" fill="white">
<path d="M46 23C46 27.4664 44.6996 31.8361 42.2575 35.5758C39.8154 39.3154 36.3373 42.2631 32.2479 44.0589C28.1584 45.8547 23.6346 46.4211 19.2286 45.6887C14.8227 44.9563 10.7253 42.957 7.43676 39.9347C4.1482 36.9125 1.81073 32.9982 0.709743 28.6696C-0.391241 24.341 -0.208103 19.7856 1.2368 15.5594C2.6817 11.3332 5.32584 7.61908 8.84641 4.87058C12.367 2.12209 16.6116 0.458103 21.0621 0.0817844L21.7704 8.45826C18.9465 8.69704 16.2533 9.75285 14.0195 11.4968C11.7856 13.2407 10.1079 15.5973 9.19112 18.2789C8.27433 20.9604 8.15812 23.8509 8.8567 26.5974C9.55528 29.3439 11.0384 31.8276 13.125 33.7452C15.2117 35.6628 17.8115 36.9314 20.607 37.3961C23.4026 37.8608 26.273 37.5015 28.8678 36.362C31.4626 35.2225 33.6695 33.3522 35.219 30.9794C36.7685 28.6066 37.5936 25.8339 37.5936 23H46Z"/>
</mask>
<path d="M46 23C46 27.4664 44.6996 31.8361 42.2575 35.5758C39.8154 39.3154 36.3373 42.2631 32.2479 44.0589C28.1584 45.8547 23.6346 46.4211 19.2286 45.6887C14.8227 44.9563 10.7253 42.957 7.43676 39.9347C4.1482 36.9125 1.81073 32.9982 0.709743 28.6696C-0.391241 24.341 -0.208103 19.7856 1.2368 15.5594C2.6817 11.3332 5.32584 7.61908 8.84641 4.87058C12.367 2.12209 16.6116 0.458103 21.0621 0.0817844L21.7704 8.45826C18.9465 8.69704 16.2533 9.75285 14.0195 11.4968C11.7856 13.2407 10.1079 15.5973 9.19112 18.2789C8.27433 20.9604 8.15812 23.8509 8.8567 26.5974C9.55528 29.3439 11.0384 31.8276 13.125 33.7452C15.2117 35.6628 17.8115 36.9314 20.607 37.3961C23.4026 37.8608 26.273 37.5015 28.8678 36.362C31.4626 35.2225 33.6695 33.3522 35.219 30.9794C36.7685 28.6066 37.5936 25.8339 37.5936 23H46Z" stroke="#B8CFED" stroke-width="18" mask="url(#path-2-inside-1_52_871)"/>
</svg>
