<svg width="208" height="55" viewBox="0 0 208 55" fill="none" xmlns="http://www.w3.org/2000/svg">
<g filter="url(#filter0_d_211_1896)">
<rect x="4" width="200" height="47" rx="4" fill="#0077C8" shape-rendering="crispEdges"/>
<path d="M36.42 23.8C36.42 22.976 36.604 22.24 36.972 21.592C37.348 20.936 37.856 20.428 38.496 20.068C39.144 19.7 39.868 19.516 40.668 19.516C41.604 19.516 42.424 19.756 43.128 20.236C43.832 20.716 44.324 21.38 44.604 22.228H42.672C42.48 21.828 42.208 21.528 41.856 21.328C41.512 21.128 41.112 21.028 40.656 21.028C40.168 21.028 39.732 21.144 39.348 21.376C38.972 21.6 38.676 21.92 38.46 22.336C38.252 22.752 38.148 23.24 38.148 23.8C38.148 24.352 38.252 24.84 38.46 25.264C38.676 25.68 38.972 26.004 39.348 26.236C39.732 26.46 40.168 26.572 40.656 26.572C41.112 26.572 41.512 26.472 41.856 26.272C42.208 26.064 42.48 25.76 42.672 25.36H44.604C44.324 26.216 43.832 26.884 43.128 27.364C42.432 27.836 41.612 28.072 40.668 28.072C39.868 28.072 39.144 27.892 38.496 27.532C37.856 27.164 37.348 26.656 36.972 26.008C36.604 25.36 36.42 24.624 36.42 23.8ZM47.7189 19.12V28H46.0389V19.12H47.7189ZM50.2308 20.56C49.9348 20.56 49.6868 20.468 49.4868 20.284C49.2948 20.092 49.1988 19.856 49.1988 19.576C49.1988 19.296 49.2948 19.064 49.4868 18.88C49.6868 18.688 49.9348 18.592 50.2308 18.592C50.5268 18.592 50.7708 18.688 50.9628 18.88C51.1628 19.064 51.2628 19.296 51.2628 19.576C51.2628 19.856 51.1628 20.092 50.9628 20.284C50.7708 20.468 50.5268 20.56 50.2308 20.56ZM51.0588 21.352V28H49.3788V21.352H51.0588ZM52.2866 24.676C52.2866 23.988 52.4266 23.388 52.7066 22.876C52.9866 22.356 53.3746 21.956 53.8706 21.676C54.3666 21.388 54.9346 21.244 55.5746 21.244C56.3986 21.244 57.0786 21.452 57.6146 21.868C58.1586 22.276 58.5226 22.852 58.7066 23.596H56.8946C56.7986 23.308 56.6346 23.084 56.4026 22.924C56.1786 22.756 55.8986 22.672 55.5626 22.672C55.0826 22.672 54.7026 22.848 54.4226 23.2C54.1426 23.544 54.0026 24.036 54.0026 24.676C54.0026 25.308 54.1426 25.8 54.4226 26.152C54.7026 26.496 55.0826 26.668 55.5626 26.668C56.2426 26.668 56.6866 26.364 56.8946 25.756H58.7066C58.5226 26.476 58.1586 27.048 57.6146 27.472C57.0706 27.896 56.3906 28.108 55.5746 28.108C54.9346 28.108 54.3666 27.968 53.8706 27.688C53.3746 27.4 52.9866 27 52.7066 26.488C52.4266 25.968 52.2866 25.364 52.2866 24.676ZM63.8734 28L61.6174 25.168V28H59.9374V19.12H61.6174V24.172L63.8494 21.352H66.0334L63.1054 24.688L66.0574 28H63.8734ZM76.7526 19.624V28H75.0726V24.436H71.4846V28H69.8046V19.624H71.4846V23.068H75.0726V19.624H76.7526ZM84.5861 24.532C84.5861 24.772 84.5701 24.988 84.5381 25.18H79.6781C79.7181 25.66 79.8861 26.036 80.1821 26.308C80.4781 26.58 80.8421 26.716 81.2741 26.716C81.8981 26.716 82.3421 26.448 82.6061 25.912H84.4181C84.2261 26.552 83.8581 27.08 83.3141 27.496C82.7701 27.904 82.1021 28.108 81.3101 28.108C80.6701 28.108 80.0941 27.968 79.5821 27.688C79.0781 27.4 78.6821 26.996 78.3941 26.476C78.1141 25.956 77.9741 25.356 77.9741 24.676C77.9741 23.988 78.1141 23.384 78.3941 22.864C78.6741 22.344 79.0661 21.944 79.5701 21.664C80.0741 21.384 80.6541 21.244 81.3101 21.244C81.9421 21.244 82.5061 21.38 83.0021 21.652C83.5061 21.924 83.8941 22.312 84.1661 22.816C84.4461 23.312 84.5861 23.884 84.5861 24.532ZM82.8461 24.052C82.8381 23.62 82.6821 23.276 82.3781 23.02C82.0741 22.756 81.7021 22.624 81.2621 22.624C80.8461 22.624 80.4941 22.752 80.2061 23.008C79.9261 23.256 79.7541 23.604 79.6901 24.052H82.8461ZM87.4924 22.384C87.7084 22.032 87.9884 21.756 88.3324 21.556C88.6844 21.356 89.0844 21.256 89.5324 21.256V23.02H89.0884C88.5604 23.02 88.1604 23.144 87.8884 23.392C87.6244 23.64 87.4924 24.072 87.4924 24.688V28H85.8124V21.352H87.4924V22.384ZM96.8439 24.532C96.8439 24.772 96.8279 24.988 96.7959 25.18H91.9359C91.9759 25.66 92.1439 26.036 92.4399 26.308C92.7359 26.58 93.0999 26.716 93.5319 26.716C94.1559 26.716 94.5999 26.448 94.8639 25.912H96.6759C96.4839 26.552 96.1159 27.08 95.5719 27.496C95.0279 27.904 94.3599 28.108 93.5679 28.108C92.9279 28.108 92.3519 27.968 91.8399 27.688C91.3359 27.4 90.9399 26.996 90.6519 26.476C90.3719 25.956 90.2319 25.356 90.2319 24.676C90.2319 23.988 90.3719 23.384 90.6519 22.864C90.9319 22.344 91.3239 21.944 91.8279 21.664C92.3319 21.384 92.9119 21.244 93.5679 21.244C94.1999 21.244 94.7639 21.38 95.2599 21.652C95.7639 21.924 96.1519 22.312 96.4239 22.816C96.7039 23.312 96.8439 23.884 96.8439 24.532ZM95.1039 24.052C95.0959 23.62 94.9399 23.276 94.6359 23.02C94.3319 22.756 93.9599 22.624 93.5199 22.624C93.1039 22.624 92.7519 22.752 92.4639 23.008C92.1839 23.256 92.0119 23.604 91.9479 24.052H95.1039ZM102.886 22.732V25.948C102.886 26.172 102.938 26.336 103.042 26.44C103.154 26.536 103.338 26.584 103.594 26.584H104.374V28H103.318C101.902 28 101.194 27.312 101.194 25.936V22.732H100.402V21.352H101.194V19.708H102.886V21.352H104.374V22.732H102.886ZM108.534 28.108C107.894 28.108 107.318 27.968 106.806 27.688C106.294 27.4 105.89 26.996 105.594 26.476C105.306 25.956 105.162 25.356 105.162 24.676C105.162 23.996 105.31 23.396 105.606 22.876C105.91 22.356 106.322 21.956 106.842 21.676C107.362 21.388 107.942 21.244 108.582 21.244C109.222 21.244 109.802 21.388 110.322 21.676C110.842 21.956 111.25 22.356 111.546 22.876C111.85 23.396 112.002 23.996 112.002 24.676C112.002 25.356 111.846 25.956 111.534 26.476C111.23 26.996 110.814 27.4 110.286 27.688C109.766 27.968 109.182 28.108 108.534 28.108ZM108.534 26.644C108.838 26.644 109.122 26.572 109.386 26.428C109.658 26.276 109.874 26.052 110.034 25.756C110.194 25.46 110.274 25.1 110.274 24.676C110.274 24.044 110.106 23.56 109.77 23.224C109.442 22.88 109.038 22.708 108.558 22.708C108.078 22.708 107.674 22.88 107.346 23.224C107.026 23.56 106.866 24.044 106.866 24.676C106.866 25.308 107.022 25.796 107.334 26.14C107.654 26.476 108.054 26.644 108.534 26.644ZM115.686 23.8C115.686 22.976 115.87 22.24 116.238 21.592C116.614 20.936 117.122 20.428 117.762 20.068C118.41 19.7 119.134 19.516 119.934 19.516C120.87 19.516 121.69 19.756 122.394 20.236C123.098 20.716 123.59 21.38 123.87 22.228H121.938C121.746 21.828 121.474 21.528 121.122 21.328C120.778 21.128 120.378 21.028 119.922 21.028C119.434 21.028 118.998 21.144 118.614 21.376C118.238 21.6 117.942 21.92 117.726 22.336C117.518 22.752 117.414 23.24 117.414 23.8C117.414 24.352 117.518 24.84 117.726 25.264C117.942 25.68 118.238 26.004 118.614 26.236C118.998 26.46 119.434 26.572 119.922 26.572C120.378 26.572 120.778 26.472 121.122 26.272C121.474 26.064 121.746 25.76 121.938 25.36H123.87C123.59 26.216 123.098 26.884 122.394 27.364C121.698 27.836 120.878 28.072 119.934 28.072C119.134 28.072 118.41 27.892 117.762 27.532C117.122 27.164 116.614 26.656 116.238 26.008C115.87 25.36 115.686 24.624 115.686 23.8ZM128.257 28.108C127.617 28.108 127.041 27.968 126.529 27.688C126.017 27.4 125.613 26.996 125.317 26.476C125.029 25.956 124.885 25.356 124.885 24.676C124.885 23.996 125.033 23.396 125.329 22.876C125.633 22.356 126.045 21.956 126.565 21.676C127.085 21.388 127.665 21.244 128.305 21.244C128.945 21.244 129.525 21.388 130.045 21.676C130.565 21.956 130.973 22.356 131.269 22.876C131.573 23.396 131.725 23.996 131.725 24.676C131.725 25.356 131.569 25.956 131.257 26.476C130.953 26.996 130.537 27.4 130.009 27.688C129.489 27.968 128.905 28.108 128.257 28.108ZM128.257 26.644C128.561 26.644 128.845 26.572 129.109 26.428C129.381 26.276 129.597 26.052 129.757 25.756C129.917 25.46 129.997 25.1 129.997 24.676C129.997 24.044 129.829 23.56 129.493 23.224C129.165 22.88 128.761 22.708 128.281 22.708C127.801 22.708 127.397 22.88 127.069 23.224C126.749 23.56 126.589 24.044 126.589 24.676C126.589 25.308 126.745 25.796 127.057 26.14C127.377 26.476 127.777 26.644 128.257 26.644ZM136.641 21.256C137.433 21.256 138.073 21.508 138.561 22.012C139.049 22.508 139.293 23.204 139.293 24.1V28H137.613V24.328C137.613 23.8 137.481 23.396 137.217 23.116C136.953 22.828 136.593 22.684 136.137 22.684C135.673 22.684 135.305 22.828 135.033 23.116C134.769 23.396 134.637 23.8 134.637 24.328V28H132.957V21.352H134.637V22.18C134.861 21.892 135.145 21.668 135.489 21.508C135.841 21.34 136.225 21.256 136.641 21.256ZM142.847 22.732V25.948C142.847 26.172 142.899 26.336 143.003 26.44C143.115 26.536 143.299 26.584 143.555 26.584H144.335V28H143.279C141.863 28 141.155 27.312 141.155 25.936V22.732H140.363V21.352H141.155V19.708H142.847V21.352H144.335V22.732H142.847ZM146.395 20.56C146.099 20.56 145.851 20.468 145.651 20.284C145.459 20.092 145.363 19.856 145.363 19.576C145.363 19.296 145.459 19.064 145.651 18.88C145.851 18.688 146.099 18.592 146.395 18.592C146.691 18.592 146.935 18.688 147.127 18.88C147.327 19.064 147.427 19.296 147.427 19.576C147.427 19.856 147.327 20.092 147.127 20.284C146.935 20.468 146.691 20.56 146.395 20.56ZM147.223 21.352V28H145.543V21.352H147.223ZM152.567 21.256C153.359 21.256 153.999 21.508 154.487 22.012C154.975 22.508 155.219 23.204 155.219 24.1V28H153.539V24.328C153.539 23.8 153.407 23.396 153.143 23.116C152.879 22.828 152.519 22.684 152.063 22.684C151.599 22.684 151.231 22.828 150.959 23.116C150.695 23.396 150.563 23.8 150.563 24.328V28H148.883V21.352H150.563V22.18C150.787 21.892 151.071 21.668 151.415 21.508C151.767 21.34 152.151 21.256 152.567 21.256ZM163.092 21.352V28H161.4V27.16C161.184 27.448 160.9 27.676 160.548 27.844C160.204 28.004 159.828 28.084 159.42 28.084C158.9 28.084 158.44 27.976 158.04 27.76C157.64 27.536 157.324 27.212 157.092 26.788C156.868 26.356 156.756 25.844 156.756 25.252V21.352H158.436V25.012C158.436 25.54 158.568 25.948 158.832 26.236C159.096 26.516 159.456 26.656 159.912 26.656C160.376 26.656 160.74 26.516 161.004 26.236C161.268 25.948 161.4 25.54 161.4 25.012V21.352H163.092ZM170.93 24.532C170.93 24.772 170.914 24.988 170.882 25.18H166.022C166.062 25.66 166.23 26.036 166.526 26.308C166.822 26.58 167.186 26.716 167.618 26.716C168.242 26.716 168.686 26.448 168.95 25.912H170.762C170.57 26.552 170.202 27.08 169.658 27.496C169.114 27.904 168.446 28.108 167.654 28.108C167.014 28.108 166.438 27.968 165.926 27.688C165.422 27.4 165.026 26.996 164.738 26.476C164.458 25.956 164.318 25.356 164.318 24.676C164.318 23.988 164.458 23.384 164.738 22.864C165.018 22.344 165.41 21.944 165.914 21.664C166.418 21.384 166.998 21.244 167.654 21.244C168.286 21.244 168.85 21.38 169.346 21.652C169.85 21.924 170.238 22.312 170.51 22.816C170.79 23.312 170.93 23.884 170.93 24.532ZM169.19 24.052C169.182 23.62 169.026 23.276 168.722 23.02C168.418 22.756 168.046 22.624 167.606 22.624C167.19 22.624 166.838 22.752 166.55 23.008C166.27 23.256 166.098 23.604 166.034 24.052H169.19Z" fill="white"/>
</g>
<defs>
<filter id="filter0_d_211_1896" x="0" y="0" width="208" height="55" filterUnits="userSpaceOnUse" color-interpolation-filters="sRGB">
<feFlood flood-opacity="0" result="BackgroundImageFix"/>
<feColorMatrix in="SourceAlpha" type="matrix" values="0 0 0 0 0 0 0 0 0 0 0 0 0 0 0 0 0 0 127 0" result="hardAlpha"/>
<feOffset dy="4"/>
<feGaussianBlur stdDeviation="2"/>
<feComposite in2="hardAlpha" operator="out"/>
<feColorMatrix type="matrix" values="0 0 0 0 0 0 0 0 0 0.466667 0 0 0 0 0.784314 0 0 0 0.19 0"/>
<feBlend mode="normal" in2="BackgroundImageFix" result="effect1_dropShadow_211_1896"/>
<feBlend mode="normal" in="SourceGraphic" in2="effect1_dropShadow_211_1896" result="shape"/>
</filter>
</defs>
</svg>
