<svg width="410" height="49" viewBox="0 0 410 49" fill="none" xmlns="http://www.w3.org/2000/svg">
<path d="M31.96 3.072L17.816 29.824V48H14.936V29.824L0.664 3.072H3.928L16.344 27.136L28.696 3.072H31.96ZM54.169 48.512C50.9263 48.512 48.0037 47.7867 45.401 46.336C42.7983 44.8853 40.7503 42.816 39.257 40.128C37.8063 37.3973 37.081 34.2187 37.081 30.592C37.081 27.008 37.8277 23.872 39.321 21.184C40.8143 18.4533 42.8623 16.384 45.465 14.976C48.1103 13.5253 51.0543 12.8 54.297 12.8C57.5397 12.8 60.4623 13.5253 63.065 14.976C65.6677 16.384 67.6943 18.432 69.145 21.12C70.6383 23.808 71.385 26.9653 71.385 30.592C71.385 34.2187 70.6383 37.3973 69.145 40.128C67.6517 42.816 65.5823 44.8853 62.937 46.336C60.3343 47.7867 57.4117 48.512 54.169 48.512ZM54.169 45.952C56.6863 45.952 59.033 45.3973 61.209 44.288C63.4277 43.136 65.1983 41.408 66.521 39.104C67.8437 36.8 68.505 33.9627 68.505 30.592C68.505 27.264 67.8437 24.448 66.521 22.144C65.1983 19.84 63.449 18.1333 61.273 17.024C59.097 15.872 56.7503 15.296 54.233 15.296C51.7157 15.296 49.369 15.872 47.193 17.024C45.0597 18.1333 43.3317 19.84 42.009 22.144C40.6863 24.448 40.025 27.264 40.025 30.592C40.025 33.9627 40.665 36.8 41.945 39.104C43.2677 41.408 44.9957 43.136 47.129 44.288C49.305 45.3973 51.6517 45.952 54.169 45.952ZM109.499 13.248V48H106.619V40.448C105.638 43.0933 103.995 45.12 101.691 46.528C99.4297 47.8933 96.827 48.576 93.883 48.576C89.7443 48.576 86.3523 47.3173 83.707 44.8C81.1043 42.24 79.803 38.464 79.803 33.472V13.248H82.619V33.28C82.619 37.4187 83.6643 40.5973 85.755 42.816C87.8457 44.992 90.683 46.08 94.267 46.08C98.0217 46.08 101.008 44.8853 103.227 42.496C105.488 40.1067 106.619 36.5653 106.619 31.872V13.248H109.499ZM120.254 3.072H123.902L118.91 16.192H116.734L120.254 3.072ZM133.878 20.416C134.731 17.856 136.246 15.9147 138.422 14.592C140.598 13.2267 143.371 12.544 146.742 12.544V15.552H145.782C142.369 15.552 139.531 16.5333 137.27 18.496C135.009 20.416 133.878 23.5733 133.878 27.968V48H130.998V13.248H133.878V20.416ZM184.669 28.288C184.669 29.824 184.626 30.976 184.541 31.744H154.525C154.61 34.8587 155.293 37.4827 156.573 39.616C157.853 41.7493 159.538 43.3493 161.629 44.416C163.72 45.4827 166.002 46.016 168.477 46.016C171.89 46.016 174.749 45.184 177.053 43.52C179.357 41.8133 180.808 39.5093 181.405 36.608H184.413C183.73 40.1493 181.981 43.0293 179.165 45.248C176.349 47.424 172.786 48.512 168.477 48.512C165.234 48.512 162.333 47.7867 159.773 46.336C157.213 44.8853 155.208 42.816 153.757 40.128C152.306 37.3973 151.581 34.2187 151.581 30.592C151.581 26.9653 152.285 23.808 153.693 21.12C155.144 18.432 157.149 16.384 159.709 14.976C162.269 13.5253 165.192 12.8 168.477 12.8C171.805 12.8 174.685 13.5253 177.117 14.976C179.592 16.384 181.469 18.2827 182.749 20.672C184.029 23.0187 184.669 25.5573 184.669 28.288ZM181.789 29.376C181.917 26.304 181.362 23.7013 180.125 21.568C178.93 19.4347 177.288 17.856 175.197 16.832C173.106 15.7653 170.845 15.232 168.413 15.232C165.981 15.232 163.72 15.7653 161.629 16.832C159.581 17.856 157.896 19.4347 156.573 21.568C155.293 23.7013 154.61 26.304 154.525 29.376H181.789ZM208.556 30.208C208.556 26.6667 209.281 23.5307 210.732 20.8C212.225 18.0693 214.23 15.9573 216.748 14.464C219.308 12.928 222.124 12.16 225.196 12.16C227.969 12.16 230.38 12.7147 232.428 13.824C234.518 14.8907 236.182 16.2347 237.42 17.856V12.736H244.78V48H237.42V42.752C236.182 44.416 234.497 45.8027 232.364 46.912C230.23 48.0213 227.798 48.576 225.068 48.576C222.038 48.576 219.265 47.808 216.748 46.272C214.23 44.6933 212.225 42.5173 210.732 39.744C209.281 36.928 208.556 33.7493 208.556 30.208ZM237.42 30.336C237.42 27.904 236.908 25.792 235.884 24C234.902 22.208 233.601 20.8427 231.98 19.904C230.358 18.9653 228.609 18.496 226.732 18.496C224.854 18.496 223.105 18.9653 221.484 19.904C219.862 20.8 218.54 22.144 217.516 23.936C216.534 25.6853 216.044 27.776 216.044 30.208C216.044 32.64 216.534 34.7733 217.516 36.608C218.54 38.4427 219.862 39.8507 221.484 40.832C223.148 41.7707 224.897 42.24 226.732 42.24C228.609 42.24 230.358 41.7707 231.98 40.832C233.601 39.8933 234.902 38.528 235.884 36.736C236.908 34.9013 237.42 32.768 237.42 30.336ZM261.659 0.639999V48H254.363V0.639999H261.659ZM278.534 0.639999V48H271.238V0.639999H278.534ZM317.538 48.576C314.764 48.576 312.268 48.0853 310.05 47.104C307.874 46.08 306.146 44.7147 304.866 43.008C303.586 41.2587 302.903 39.3173 302.818 37.184H310.37C310.498 38.6773 311.202 39.936 312.482 40.96C313.804 41.9413 315.447 42.432 317.41 42.432C319.458 42.432 321.036 42.048 322.146 41.28C323.298 40.4693 323.874 39.4453 323.874 38.208C323.874 36.8853 323.234 35.904 321.954 35.264C320.716 34.624 318.732 33.92 316.002 33.152C313.356 32.4267 311.202 31.7227 309.538 31.04C307.874 30.3573 306.423 29.312 305.186 27.904C303.991 26.496 303.394 24.64 303.394 22.336C303.394 20.4587 303.948 18.752 305.058 17.216C306.167 15.6373 307.746 14.4 309.794 13.504C311.884 12.608 314.274 12.16 316.962 12.16C320.972 12.16 324.194 13.184 326.626 15.232C329.1 17.2373 330.423 19.9893 330.594 23.488H323.298C323.17 21.9093 322.53 20.6507 321.378 19.712C320.226 18.7733 318.668 18.304 316.706 18.304C314.786 18.304 313.314 18.6667 312.29 19.392C311.266 20.1173 310.754 21.0773 310.754 22.272C310.754 23.2107 311.095 24 311.778 24.64C312.46 25.28 313.292 25.792 314.274 26.176C315.255 26.5173 316.706 26.9653 318.626 27.52C321.186 28.2027 323.276 28.9067 324.898 29.632C326.562 30.3147 327.991 31.3387 329.186 32.704C330.38 34.0693 330.999 35.8827 331.042 38.144C331.042 40.1493 330.487 41.9413 329.378 43.52C328.268 45.0987 326.69 46.336 324.642 47.232C322.636 48.128 320.268 48.576 317.538 48.576ZM371.245 29.504C371.245 30.8267 371.16 32.0213 370.989 33.088H344.045C344.258 35.904 345.304 38.1653 347.181 39.872C349.058 41.5787 351.362 42.432 354.093 42.432C358.018 42.432 360.792 40.7893 362.413 37.504H370.285C369.218 40.7467 367.277 43.4133 364.461 45.504C361.688 47.552 358.232 48.576 354.093 48.576C350.722 48.576 347.693 47.8293 345.005 46.336C342.36 44.8 340.269 42.6667 338.733 39.936C337.24 37.1627 336.493 33.9627 336.493 30.336C336.493 26.7093 337.218 23.5307 338.669 20.8C340.162 18.0267 342.232 15.8933 344.877 14.4C347.565 12.9067 350.637 12.16 354.093 12.16C357.421 12.16 360.386 12.8853 362.989 14.336C365.592 15.7867 367.618 17.8347 369.069 20.48C370.52 23.0827 371.245 26.0907 371.245 29.504ZM363.629 27.2C363.586 24.512 362.626 22.3573 360.749 20.736C358.872 19.1147 356.546 18.304 353.773 18.304C351.256 18.304 349.101 19.1147 347.309 20.736C345.517 22.3147 344.45 24.4693 344.109 27.2H363.629ZM386.937 18.688V38.208C386.937 39.5307 387.236 40.4907 387.833 41.088C388.473 41.6427 389.54 41.92 391.033 41.92H395.513V48H389.753C386.468 48 383.95 47.232 382.201 45.696C380.452 44.16 379.577 41.664 379.577 38.208V18.688H375.417V12.736H379.577V3.968H386.937V12.736H395.513V18.688H386.937ZM405.182 48.448C403.859 48.448 402.75 48 401.854 47.104C400.958 46.208 400.51 45.0987 400.51 43.776C400.51 42.4533 400.958 41.344 401.854 40.448C402.75 39.552 403.859 39.104 405.182 39.104C406.462 39.104 407.55 39.552 408.446 40.448C409.342 41.344 409.79 42.4533 409.79 43.776C409.79 45.0987 409.342 46.208 408.446 47.104C407.55 48 406.462 48.448 405.182 48.448Z" fill="black"/>
</svg>
